<?xml version="1.0" encoding="utf-8"?>
<!-- Generator: Adobe Illustrator 16.0.4, SVG Export Plug-In . SVG Version: 6.00 Build 0)  -->
<!DOCTYPE svg PUBLIC "-//W3C//DTD SVG 1.0//EN" "http://www.w3.org/TR/2001/REC-SVG-20010904/DTD/svg10.dtd">
<svg version="1.0" id="Layer_1" xmlns="http://www.w3.org/2000/svg" xmlns:xlink="http://www.w3.org/1999/xlink" x="0px" y="0px"
	 width="138.66px" height="70.031px" viewBox="0 0 138.66 70.031" enable-background="new 0 0 138.66 70.031" xml:space="preserve">
<g>
	<g>
		<path fill="#EA2030" d="M123.815,55.564c-1.808-0.013-3.222-1.43-3.222-3.21c0.012-1.782,1.414-3.196,3.222-3.188
			c1.785,0,3.2,1.414,3.2,3.188C127.004,54.134,125.601,55.564,123.815,55.564v-0.523c1.467-0.005,2.679-1.167,2.679-2.68
			c0-1.52-1.225-2.688-2.679-2.688c-1.477,0-2.701,1.168-2.701,2.681c0,1.508,1.22,2.682,2.701,2.687V55.564z"/>
		<path fill="#EA2030" d="M123.118,54.187l-0.558-0.014l0.015-3.594h1.415c0.83,0,1.246,0.222,1.246,0.959
			c0,0.743-0.508,0.926-0.926,0.926l0.951,1.723h-0.618l-0.887-1.671l-0.639,0.007l0.013-0.527h0.859
			c0.398,0,0.703-0.039,0.698-0.463c0-0.357-0.216-0.425-0.698-0.43h-0.859L123.118,54.187z"/>
	</g>
	<g>
		<g>
			<path fill="#EA2127" d="M69.271,70.031c6.483-11.259,22.877-14.037,37.473-17.547c13.972-3.358,31.896-8.811,31.916-22.771
				c0.02-22.254-43.877-29.546-69.297-29.71C43.937-0.153,0.02,7.294,0,29.551c-0.033,13.945,17.886,19.457,31.838,22.842
				C46.436,55.935,62.826,58.758,69.271,70.031z"/>
		</g>
		<g>
			<g>
				<polygon fill="#FBED1F" points="119.646,37.775 119.666,21.794 114.213,21.789 114.193,37.775 				"/>
				<polygon fill="#FBED1F" points="119.652,20.569 119.666,18.435 114.227,18.429 114.213,20.556 				"/>
			</g>
			<g>
				<polygon fill="#FBED1F" points="24.643,37.66 24.656,25.597 30.722,37.666 34.715,37.671 40.475,25.31 40.454,37.677 
					45.802,37.685 45.814,19.382 38.074,19.375 32.744,30.693 27.01,19.356 19.313,19.349 19.288,37.66 				"/>
			</g>
			<path fill="#FBED1F" d="M79.891,30.673c3.045-0.007,4.963-0.43,4.963-2.91c0-1.865-0.888-3.301-5.1-3.307
				c-2.928-0.007-4.378,0.542-4.378,3.156C75.363,30.249,77.367,30.673,79.891,30.673l-0.568,3.09
				c-8.27-0.005-9.575-2.496-9.575-6.111c0-3.99,1.11-6.45,9.237-6.438c4.045,0,5.824,1.561,5.824,1.561V21.75l5.415,0.013
				l-0.007,12.008c-0.014,5.688-5.5,6.887-9.89,6.881c-10.437-0.014-10.474-4.279-10.474-5.556c0-0.398,0-0.574,0-0.574h5.543
				c0,0-0.007,0.254,0,0.58c0.059,1.892,2.491,2.464,4.779,2.484c4.6,0.007,4.666-2.681,4.654-3.312
				c0.012-0.262,0.012-1.475,0.012-1.625c0,0-1.859,1.114-5.52,1.114L79.891,30.673z"/>
			<path fill="#FBED1F" d="M101.846,30.685c3.06,0.014,4.964-0.417,4.971-2.902c0-1.859-0.881-3.299-5.093-3.299
				c-2.943-0.009-4.391,0.547-4.391,3.162C97.333,30.275,99.334,30.693,101.846,30.685l-0.566,3.111
				c-8.271-0.013-9.562-2.504-9.576-6.111c0.015-3.998,1.109-6.457,9.242-6.457c4.052,0.014,5.831,1.566,5.831,1.566v-1.018
				l5.409,0.012l-0.013,12.008c0,5.694-5.474,6.889-9.876,6.889c-10.438-0.027-10.482-4.278-10.482-5.57
				c0-0.393-0.007-0.574-0.007-0.574l5.558,0.007c0,0-0.021,0.26-0.007,0.58c0.052,1.892,2.486,2.479,4.78,2.485
				c4.605,0,4.671-2.682,4.658-3.32c0-0.248,0.013-1.468,0.013-1.617c0,0-1.859,1.121-5.53,1.121L101.846,30.685z"/>
			<path fill="#FBED1F" d="M58.006,29.975c-2.504-0.007-4.709,0.261-4.709,2.394c-0.013,1.371,0.899,2.559,4.201,2.562
				c3.418,0,5.343-0.338,5.343-2.602C62.841,30.151,60.551,29.968,58.006,29.975l-0.73-3.091c3.707,0,5.551,1.016,5.551,1.016
				s0-0.658,0-0.939c0-0.664-0.221-2.766-5.348-2.771c-1.891,0-3.451,0.405-3.993,1.572c-0.122,0.273-0.162,0.502-0.162,0.502
				l-5.519-0.007c0,0,0-0.233,0-0.503c0.014-4.904,9.687-4.552,10.547-4.552c5.337,0.007,10.038,1.331,10.025,6.471L68.364,37.71
				h-5.543v-0.965c-2.427,1.07-4.07,1.33-6.628,1.323c-2.564-0.006-8.779-0.417-8.779-5.517c0-1.012-0.385-5.684,9.861-5.668
				L58.006,29.975z"/>
		</g>
	</g>
</g>
</svg>
